<?xml version="1.0" encoding="utf-8"?>
<!-- Generator: Adobe Illustrator 15.1.0, SVG Export Plug-In . SVG Version: 6.00 Build 0)  -->
<!DOCTYPE svg PUBLIC "-//W3C//DTD SVG 1.0//EN" "http://www.w3.org/TR/2001/REC-SVG-20010904/DTD/svg10.dtd">
<svg version="1.0" id="Layer_1" xmlns="http://www.w3.org/2000/svg" xmlns:xlink="http://www.w3.org/1999/xlink" x="0px" y="0px"
	 width="300px" height="300px" viewBox="0 0 300 300" enable-background="new 0 0 300 300" xml:space="preserve">
<g>
	<path clip-path="url(#SVGID_2_)" fill="#2d6cc0" d="M81.537,158.076l1.563,0.107l-0.549,8.227l3.501,0.229l-0.095,1.397
		l-5.06-0.338L81.537,158.076z M92.809,158.088l5.199,1.385l-0.344,1.297l-3.688-0.991l-0.624,2.335l3.691,0.985l-0.357,1.333
		l-3.689-0.985l-0.798,3.009l3.683,0.982l-0.357,1.359l-5.204-1.387L92.809,158.088z M101.214,172.295l-1.351-0.791l4.181-7.181
		l-2.215-1.293l0.669-1.152l5.772,3.363l-0.672,1.15l-2.2-1.28L101.214,172.295z M111.835,182.271l-0.813-1.34l7.102-4.316
		l-1.332-2.192l1.14-0.692l3.471,5.708l-1.145,0.692l-1.324-2.182L111.835,182.271z M123.135,183.613l0.794,1.348l-3.065,1.809
		l2.402,4.093l3.072-1.809l0.794,1.353l-8.314,4.89l-0.794-1.351l4.036-2.374l-2.408-4.093l-4.036,2.371l-0.795-1.348
		L123.135,183.613z M129.648,193.848l3.584,4.025l-0.996,0.883l-2.545-2.85l-1.8,1.612l2.543,2.849l-1.028,0.915l-2.541-2.849
		l-2.33,2.078l2.546,2.849l-1.045,0.933l-3.585-4.017L129.648,193.848z M130.784,209.84l-1.229-0.809l5.301-8.06l1.828,1.198
		c0.867,0.572,1.461,1.059,1.709,1.771c0.231,0.704,0.108,1.526-0.388,2.286c-0.851,1.291-1.964,1.611-3.277,0.96l0.361,5.485
		l-1.472-0.977l-0.313-5.365l-0.146-0.096L130.784,209.84z M134.14,205.422c1.152,0.756,1.812,1.004,2.449,0.031
		c0.653-0.989,0.242-1.57-0.931-2.344l-0.235-0.152l-1.519,2.312L134.14,205.422z M141.765,204.721l5.32,0.82l-0.207,1.326
		l-3.772-0.592l-0.369,2.388l3.773,0.587l-0.211,1.362l-3.769-0.586l-0.48,3.078l3.771,0.591l-0.215,1.38l-5.317-0.821
		L141.765,204.721z M156.979,206.865l2.35-0.606c0.994-0.258,1.749-0.408,2.436-0.126c0.682,0.271,1.211,0.902,1.424,1.739
		c0.254,0.991-0.04,1.804-0.843,2.293c1.126-0.113,2.017,0.594,2.34,1.851c0.197,0.771,0.089,1.546-0.255,2.141
		c-0.495,0.836-1.374,1.102-2.681,1.44l-2.36,0.61L156.979,206.865z M160.061,210.277c1.373-0.356,1.904-0.822,1.652-1.807
		c-0.302-1.161-0.996-1.215-2.342-0.868l-0.576,0.144l0.688,2.678L160.061,210.277z M161.071,214.419
		c0.85-0.215,1.438-0.409,1.745-0.749c0.297-0.345,0.409-0.839,0.278-1.345c-0.151-0.583-0.519-0.98-1.051-1.112
		c-0.404-0.087-0.824-0.006-1.283,0.108c-0.144,0.041-0.299,0.079-0.454,0.121l-0.524,0.13l0.77,2.984L161.071,214.419z
		 M165.485,204.724l4.661-2.694l0.671,1.155l-3.314,1.914l1.209,2.092l3.31-1.909l0.686,1.189l-3.308,1.912l1.559,2.697l3.312-1.904
		l0.698,1.212l-4.659,2.688L165.485,204.724z M172.215,161.776l1.38,0.433l-2.277,7.261l3.092,0.973l-0.387,1.23l-4.466-1.398
		L172.215,161.776z M180.923,163.782l1.395,0.38l-2.335,8.59l-1.395-0.378L180.923,163.782z M192.9,172.694
		c-0.078,0.349-0.141,0.618-0.192,0.811c-0.65,2.442-2.488,3.431-4.993,2.76c-1.406-0.375-2.393-1.076-2.996-2.144
		c-0.593-1.049-0.73-2.322-0.389-3.595c0.346-1.303,1.087-2.292,2.182-2.899c1.064-0.595,2.334-0.73,3.623-0.384
		c1.358,0.364,2.284,1.142,2.84,2.375l-1.227,0.493c-0.397-0.831-1.029-1.343-1.934-1.586c-1.84-0.495-3.506,0.437-4.028,2.371
		c-0.524,1.968,0.438,3.63,2.3,4.131c1.609,0.431,2.791-0.121,3.133-1.395c0.006-0.036,0.023-0.081,0.035-0.121l-2.072-0.554
		l0.318-1.179L192.9,172.694z M197.355,169.623l1.431,0.19l-0.426,3.257l4.352,0.566l0.421-3.263l1.431,0.179l-1.138,8.837
		l-1.435-0.183l0.556-4.286l-4.352-0.564l-0.55,4.291l-1.433-0.188L197.355,169.623z M211.559,179.061l-1.438,0.09l-0.483-7.659
		l-2.36,0.146l-0.079-1.226l6.152-0.389l0.075,1.229l-2.347,0.15L211.559,179.061z M293.815,182.919
		c-1.152,0-2.089,0.938-2.089,2.091c0,1.154,0.937,2.085,2.089,2.085c1.154,0,2.087-0.931,2.087-2.085
		C295.902,183.856,294.97,182.919,293.815,182.919 M290.743,193.482c-1.152,0-2.087,0.937-2.087,2.091
		c0,1.151,0.935,2.087,2.087,2.087c1.153,0,2.089-0.936,2.089-2.087C292.832,194.419,291.896,193.482,290.743,193.482
		 M286.96,203.883c-1.152,0-2.087,0.938-2.087,2.093c0,1.149,0.935,2.083,2.087,2.083c1.153,0,2.087-0.934,2.087-2.083
		C289.047,204.821,288.113,203.883,286.96,203.883 M282.39,213.973c-1.152,0-2.089,0.937-2.089,2.09c0,1.15,0.937,2.087,2.089,2.087
		s2.089-0.937,2.089-2.087C284.479,214.909,283.542,213.973,282.39,213.973 M271.044,232.967c-1.152,0-2.086,0.933-2.086,2.087
		c0,1.153,0.934,2.087,2.086,2.087c1.155,0,2.087-0.934,2.087-2.087C273.131,233.899,272.199,232.967,271.044,232.967
		 M264.427,241.794c-1.154,0-2.087,0.935-2.087,2.088c0,1.152,0.933,2.088,2.087,2.088c1.151,0,2.088-0.936,2.088-2.088
		C266.515,242.729,265.578,241.794,264.427,241.794 M257.019,249.989c-1.151,0-2.089,0.937-2.089,2.089
		c0,1.154,0.938,2.091,2.089,2.091c1.154,0,2.089-0.937,2.089-2.091C259.107,250.926,258.173,249.989,257.019,249.989
		 M249.063,257.713c-1.15,0-2.087,0.938-2.087,2.089c0,1.154,0.937,2.091,2.087,2.091c1.154,0,2.089-0.937,2.089-2.091
		C251.152,258.65,250.218,257.713,249.063,257.713 M240.622,264.805c-1.15,0-2.089,0.938-2.089,2.092
		c0,1.154,0.938,2.087,2.089,2.087c1.153,0,2.088-0.933,2.088-2.087C242.71,265.743,241.775,264.805,240.622,264.805
		 M231.675,271.337c-1.153,0-2.088,0.938-2.088,2.09c0,1.154,0.935,2.089,2.088,2.089c1.152,0,2.087-0.935,2.087-2.089
		C233.762,272.275,232.827,271.337,231.675,271.337 M222.223,277.078c-1.154,0-2.087,0.937-2.087,2.091
		c0,1.153,0.933,2.089,2.087,2.089c1.151,0,2.087-0.936,2.087-2.089C224.31,278.015,223.374,277.078,222.223,277.078
		 M212.373,282.088c-1.153,0-2.088,0.937-2.088,2.089c0,1.153,0.935,2.089,2.088,2.089c1.152,0,2.088-0.936,2.088-2.089
		C214.461,283.024,213.525,282.088,212.373,282.088 M202.187,286.423c-1.153,0-2.087,0.937-2.087,2.089
		c0,1.155,0.934,2.088,2.087,2.088s2.087-0.933,2.087-2.088C204.273,287.359,203.34,286.423,202.187,286.423 M191.663,289.911
		c-1.153,0-2.089,0.937-2.089,2.089c0,1.153,0.936,2.089,2.089,2.089c1.152,0,2.087-0.936,2.087-2.089
		C193.75,290.848,192.815,289.911,191.663,289.911 M180.97,292.613c-1.152,0-2.086,0.938-2.086,2.089c0,1.155,0.934,2.09,2.086,2.09
		c1.154,0,2.089-0.935,2.089-2.09C183.059,293.552,182.124,292.613,180.97,292.613 M170.054,294.47
		c-1.151,0-2.089,0.939-2.089,2.091c0,1.152,0.938,2.089,2.089,2.089c1.153,0,2.087-0.937,2.087-2.089
		C172.141,295.409,171.207,294.47,170.054,294.47 M159.079,295.597c-1.15,0-2.085,0.937-2.085,2.089
		c0,1.154,0.935,2.089,2.085,2.089c1.153,0,2.09-0.935,2.09-2.089C161.169,296.533,160.232,295.597,159.079,295.597 M148.05,295.821
		c-1.153,0-2.088,0.937-2.088,2.091c0,1.151,0.935,2.088,2.088,2.088c1.154,0,2.088-0.937,2.088-2.088
		C150.138,296.758,149.204,295.821,148.05,295.821 M136.965,295.263c-1.152,0-2.087,0.937-2.087,2.089
		c0,1.153,0.936,2.088,2.087,2.088c1.154,0,2.087-0.935,2.087-2.088C139.053,296.199,138.119,295.263,136.965,295.263
		 M126.005,293.953c-1.153,0-2.088,0.935-2.088,2.091c0,1.153,0.935,2.087,2.088,2.087c1.154,0,2.089-0.934,2.089-2.087
		C128.094,294.888,127.159,293.953,126.005,293.953 M115.169,291.711c-1.152,0-2.088,0.938-2.088,2.09
		c0,1.154,0.936,2.089,2.088,2.089c1.153,0,2.087-0.935,2.087-2.089C117.257,292.649,116.322,291.711,115.169,291.711
		 M104.521,288.72c-1.152,0-2.088,0.938-2.088,2.09c0,1.152,0.936,2.091,2.088,2.091c1.153,0,2.088-0.938,2.088-2.091
		C106.609,289.658,105.673,288.72,104.521,288.72 M94.059,284.922c-1.154,0-2.087,0.937-2.087,2.09c0,1.152,0.933,2.087,2.087,2.087
		c1.153,0,2.088-0.935,2.088-2.087C96.146,285.858,95.211,284.922,94.059,284.922 M84.033,280.373c-1.154,0-2.088,0.938-2.088,2.091
		s0.934,2.087,2.088,2.087c1.153,0,2.087-0.934,2.087-2.087S85.186,280.373,84.033,280.373 M74.318,275.08
		c-1.153,0-2.087,0.937-2.087,2.091c0,1.151,0.935,2.087,2.087,2.087c1.152,0,2.088-0.936,2.088-2.087
		C76.406,276.017,75.47,275.08,74.318,275.08 M65.101,269.038c-1.154,0-2.087,0.935-2.087,2.087c0,1.153,0.933,2.089,2.087,2.089
		c1.153,0,2.087-0.936,2.087-2.089C67.188,269.973,66.254,269.038,65.101,269.038 M56.258,262.311c-1.152,0-2.088,0.935-2.088,2.089
		c0,1.153,0.936,2.089,2.088,2.089c1.153,0,2.087-0.936,2.087-2.089C58.346,263.245,57.411,262.311,56.258,262.311 M47.975,255.082
		c-1.153,0-2.087,0.938-2.087,2.091c0,1.151,0.934,2.089,2.087,2.089c1.154,0,2.088-0.938,2.088-2.089
		C50.063,256.021,49.129,255.082,47.975,255.082 M40.149,247.146c-1.152,0-2.087,0.937-2.087,2.091c0,1.151,0.935,2.087,2.087,2.087
		c1.153,0,2.088-0.936,2.088-2.087C42.237,248.083,41.302,247.146,40.149,247.146 M33.181,238.565c-1.153,0-2.087,0.938-2.087,2.093
		c0,1.149,0.934,2.087,2.087,2.087s2.088-0.938,2.088-2.087C35.269,239.504,34.333,238.565,33.181,238.565 M26.64,229.666
		c-1.153,0-2.086,0.937-2.086,2.091c0,1.151,0.933,2.089,2.086,2.089c1.154,0,2.089-0.938,2.089-2.089
		C28.729,230.603,27.793,229.666,26.64,229.666 M20.959,220.121c-1.154,0-2.089,0.938-2.089,2.089c0,1.153,0.936,2.091,2.089,2.091
		c1.151,0,2.087-0.938,2.087-2.091C23.046,221.06,22.111,220.121,20.959,220.121 M15.919,210.36c-1.152,0-2.087,0.939-2.087,2.089
		c0,1.156,0.935,2.091,2.087,2.091c1.153,0,2.088-0.935,2.088-2.091C18.008,211.3,17.072,210.36,15.919,210.36 M11.631,200.172
		c-1.152,0-2.087,0.937-2.087,2.091c0,1.153,0.935,2.087,2.087,2.087c1.153,0,2.087-0.934,2.087-2.087
		C13.718,201.108,12.784,200.172,11.631,200.172 M8.093,189.663c-1.153,0-2.087,0.937-2.087,2.091c0,1.153,0.935,2.087,2.087,2.087
		c1.152,0,2.089-0.934,2.089-2.087C10.182,190.6,9.245,189.663,8.093,189.663 M5.306,178.938c-1.153,0-2.087,0.938-2.087,2.089
		c0,1.154,0.934,2.089,2.087,2.089s2.088-0.935,2.088-2.089C7.394,179.876,6.458,178.938,5.306,178.938 M3.483,167.998
		c-1.153,0-2.089,0.937-2.089,2.089c0,1.153,0.936,2.09,2.089,2.09c1.152,0,2.087-0.937,2.087-2.09
		C5.57,168.935,4.636,167.998,3.483,167.998 M2.411,156.95c-1.154,0-2.089,0.938-2.089,2.092c0,1.154,0.935,2.087,2.089,2.087
		c1.153,0,2.086-0.933,2.086-2.087C4.497,157.889,3.564,156.95,2.411,156.95 M2.089,145.906c-1.152,0-2.089,0.937-2.089,2.09
		c0,1.154,0.937,2.088,2.089,2.088c1.153,0,2.088-0.934,2.088-2.088C4.177,146.843,3.242,145.906,2.089,145.906 M2.732,134.859
		c-1.154,0-2.088,0.937-2.088,2.09c0,1.154,0.935,2.089,2.088,2.089c1.152,0,2.087-0.935,2.087-2.089
		C4.819,135.796,3.884,134.859,2.732,134.859 M4.126,123.813c-1.153,0-2.087,0.936-2.087,2.089c0,1.155,0.934,2.089,2.087,2.089
		s2.088-0.934,2.088-2.089C6.214,124.749,5.279,123.813,4.126,123.813 M6.271,113.088c-1.152,0-2.087,0.936-2.087,2.09
		s0.935,2.088,2.087,2.088c1.154,0,2.088-0.934,2.088-2.088S7.424,113.088,6.271,113.088 M9.272,102.364
		c-1.153,0-2.087,0.936-2.087,2.09c0,1.153,0.935,2.088,2.087,2.088c1.152,0,2.089-0.935,2.089-2.088
		C11.361,103.3,10.425,102.364,9.272,102.364 M13.025,91.96c-1.152,0-2.087,0.937-2.087,2.089c0,1.154,0.935,2.089,2.087,2.089
		c1.154,0,2.089-0.935,2.089-2.089C15.114,92.897,14.179,91.96,13.025,91.96 M17.636,81.986c-1.153,0-2.088,0.937-2.088,2.09
		c0,1.154,0.935,2.088,2.088,2.088s2.087-0.935,2.087-2.088C19.723,82.923,18.789,81.986,17.636,81.986 M22.89,72.227
		c-1.153,0-2.089,0.937-2.089,2.09c0,1.153,0.937,2.088,2.089,2.088c1.152,0,2.087-0.935,2.087-2.088
		C24.977,73.164,24.042,72.227,22.89,72.227 M29,62.897c-1.152,0-2.088,0.938-2.088,2.09c0,1.154,0.936,2.088,2.088,2.088
		c1.153,0,2.088-0.935,2.088-2.088C31.088,63.834,30.153,62.897,29,62.897 M35.647,54.103c-1.154,0-2.088,0.937-2.088,2.09
		c0,1.153,0.934,2.089,2.088,2.089c1.153,0,2.088-0.937,2.088-2.089C37.735,55.039,36.8,54.103,35.647,54.103 M42.938,45.844
		c-1.154,0-2.088,0.936-2.088,2.091c0,1.153,0.935,2.088,2.088,2.088c1.153,0,2.087-0.936,2.087-2.088
		C45.025,46.78,44.091,45.844,42.938,45.844 M50.979,38.123c-1.152,0-2.088,0.937-2.088,2.09s0.936,2.089,2.088,2.089
		c1.154,0,2.088-0.936,2.088-2.089S52.133,38.123,50.979,38.123 M59.341,31.045c-1.153,0-2.087,0.936-2.087,2.089
		c0,1.153,0.934,2.088,2.087,2.088s2.088-0.935,2.088-2.088C61.429,31.981,60.494,31.045,59.341,31.045 M68.455,24.61
		c-1.153,0-2.088,0.937-2.088,2.09c0,1.152,0.936,2.088,2.088,2.088c1.152,0,2.088-0.936,2.088-2.088
		C70.543,25.546,69.607,24.61,68.455,24.61 M77.782,18.82c-1.153,0-2.087,0.935-2.087,2.088c0,1.154,0.934,2.088,2.087,2.088
		s2.088-0.935,2.088-2.088C79.87,19.755,78.935,18.82,77.782,18.82 M87.646,13.779c-1.153,0-2.088,0.937-2.088,2.09
		c0,1.152,0.936,2.088,2.088,2.088c1.152,0,2.088-0.936,2.088-2.088C89.734,14.715,88.798,13.779,87.646,13.779 M97.831,9.489
		c-1.153,0-2.087,0.937-2.087,2.09c0,1.152,0.935,2.088,2.087,2.088c1.152,0,2.087-0.936,2.087-2.088
		C99.918,10.426,98.983,9.489,97.831,9.489 M108.337,5.95c-1.153,0-2.087,0.935-2.087,2.09c0,1.153,0.934,2.088,2.087,2.088
		c1.154,0,2.088-0.935,2.088-2.088C110.425,6.885,109.491,5.95,108.337,5.95 M119.059,3.269c-1.153,0-2.087,0.936-2.087,2.09
		c0,1.152,0.934,2.088,2.087,2.088s2.087-0.936,2.087-2.088C121.146,4.204,120.211,3.269,119.059,3.269 M129.995,1.338
		c-1.154,0-2.089,0.937-2.089,2.089c0,1.154,0.935,2.088,2.089,2.088c1.153,0,2.087-0.934,2.087-2.088
		C132.082,2.274,131.148,1.338,129.995,1.338 M140.93,0.266c-1.153,0-2.088,0.937-2.088,2.089c0,1.153,0.935,2.089,2.088,2.089
		s2.087-0.936,2.087-2.089C143.017,1.203,142.083,0.266,140.93,0.266 M277.111,223.667c-1.15,0-2.089,0.936-2.089,2.089
		c0,1.154,0.938,2.086,2.089,2.086c1.153,0,2.088-0.932,2.088-2.086C279.199,224.603,278.265,223.667,277.111,223.667 M152.072,0
		c-1.151,0-2.086,0.936-2.086,2.088c0,1.153,0.935,2.088,2.086,2.088c1.154,0,2.089-0.935,2.089-2.088
		C154.161,0.935,153.227,0,152.072,0 M163.104,0.551c-1.152,0-2.088,0.935-2.088,2.089c0,1.153,0.936,2.088,2.088,2.088
		c1.153,0,2.088-0.935,2.088-2.088C165.192,1.486,164.258,0.551,163.104,0.551 M174.056,1.969c-1.153,0-2.084,0.936-2.084,2.089
		c0,1.153,0.931,2.088,2.084,2.088s2.089-0.935,2.089-2.088C176.145,2.904,175.209,1.969,174.056,1.969 M184.85,4.098
		c-1.152,0-2.088,0.934-2.088,2.088c0,1.153,0.936,2.087,2.088,2.087c1.153,0,2.091-0.935,2.091-2.087
		C186.94,5.032,186.003,4.098,184.85,4.098 M195.565,7.092c-1.151,0-2.087,0.936-2.087,2.089c0,1.153,0.936,2.087,2.087,2.087
		c1.154,0,2.089-0.935,2.089-2.087C197.654,8.028,196.72,7.092,195.565,7.092 M205.964,10.876c-1.151,0-2.086,0.935-2.086,2.088
		c0,1.153,0.935,2.087,2.086,2.087c1.154,0,2.089-0.935,2.089-2.087C208.053,11.811,207.118,10.876,205.964,10.876 M216.052,15.525
		c-1.151,0-2.089,0.935-2.089,2.088c0,1.154,0.938,2.089,2.089,2.089c1.152,0,2.087-0.936,2.087-2.089
		C218.139,16.46,217.204,15.525,216.052,15.525 M225.664,20.805c-1.153,0-2.091,0.936-2.091,2.089c0,1.154,0.938,2.088,2.091,2.088
		c1.15,0,2.087-0.934,2.087-2.088C227.751,21.741,226.814,20.805,225.664,20.805 M234.961,26.795c-1.155,0-2.089,0.936-2.089,2.089
		c0,1.152,0.934,2.089,2.089,2.089c1.15,0,2.085-0.937,2.085-2.089C237.046,27.73,236.111,26.795,234.961,26.795 M243.784,33.495
		c-1.153,0-2.087,0.934-2.087,2.089c0,1.152,0.934,2.088,2.087,2.088c1.154,0,2.088-0.936,2.088-2.088
		C245.872,34.429,244.938,33.495,243.784,33.495 M252.059,40.825c-1.152,0-2.085,0.935-2.085,2.087c0,1.153,0.933,2.089,2.085,2.089
		c1.153,0,2.087-0.936,2.087-2.089C254.146,41.76,253.212,40.825,252.059,40.825 M259.778,48.785c-1.151,0-2.087,0.935-2.087,2.088
		c0,1.152,0.936,2.089,2.087,2.089c1.152,0,2.089-0.937,2.089-2.089C261.867,49.719,260.931,48.785,259.778,48.785 M266.871,57.217
		c-1.153,0-2.087,0.936-2.087,2.09c0,1.153,0.934,2.087,2.087,2.087c1.15,0,2.087-0.934,2.087-2.087
		C268.958,58.153,268.021,57.217,266.871,57.217 M273.329,66.28c-1.151,0-2.087,0.936-2.087,2.088c0,1.153,0.936,2.089,2.087,2.089
		c1.154,0,2.087-0.936,2.087-2.089C275.416,67.216,274.483,66.28,273.329,66.28 M279.16,75.659c-1.15,0-2.087,0.935-2.087,2.089
		c0,1.152,0.937,2.088,2.087,2.088c1.153,0,2.089-0.936,2.089-2.088C281.249,76.594,280.313,75.659,279.16,75.659 M284.124,85.51
		c-1.152,0-2.087,0.936-2.087,2.088c0,1.154,0.935,2.088,2.087,2.088c1.153,0,2.089-0.935,2.089-2.088
		C286.213,86.446,285.277,85.51,284.124,85.51 M288.457,95.755c-1.153,0-2.087,0.937-2.087,2.089c0,1.152,0.934,2.088,2.087,2.088
		c1.154,0,2.087-0.936,2.087-2.088C290.544,96.692,289.611,95.755,288.457,95.755 M291.926,106.238
		c-1.154,0-2.089,0.935-2.089,2.088c0,1.154,0.935,2.088,2.089,2.088c1.152,0,2.087-0.935,2.087-2.088
		C294.013,107.173,293.078,106.238,291.926,106.238 M294.682,116.956c-1.152,0-2.089,0.936-2.089,2.089
		c0,1.152,0.937,2.088,2.089,2.088c1.154,0,2.087-0.936,2.087-2.088C296.769,117.891,295.836,116.956,294.682,116.956
		 M296.573,127.833c-1.151,0-2.089,0.936-2.089,2.088c0,1.154,0.938,2.089,2.089,2.089c1.154,0,2.087-0.935,2.087-2.089
		C298.66,128.768,297.728,127.833,296.573,127.833 M297.597,138.866c-1.149,0-2.089,0.936-2.089,2.088
		c0,1.154,0.939,2.089,2.089,2.089c1.154,0,2.091-0.936,2.091-2.089C299.688,139.801,298.751,138.866,297.597,138.866
		 M297.913,149.979c-1.151,0-2.088,0.935-2.088,2.089c0,1.153,0.937,2.085,2.088,2.085c1.154,0,2.087-0.932,2.087-2.085
		C300,150.913,299.067,149.979,297.913,149.979 M297.36,161.091c-1.152,0-2.087,0.934-2.087,2.087c0,1.154,0.935,2.089,2.087,2.089
		c1.153,0,2.091-0.935,2.091-2.089C299.451,162.024,298.514,161.091,297.36,161.091 M295.942,171.966
		c-1.152,0-2.087,0.935-2.087,2.089c0,1.155,0.935,2.087,2.087,2.087c1.153,0,2.089-0.932,2.089-2.087
		C298.031,172.9,297.096,171.966,295.942,171.966 M78.721,240.056c0.552-0.765,0.921-1.314,1.061-1.588
		c0.12-0.257-0.033-0.689-0.084-0.754c-0.21-0.312-0.87-0.79-1.118-1.01l-0.025-0.139l0.285-0.393l0.146-0.019
		c0.265,0.194,1.211,1.01,3.287,2.527c1.089,0.795,2.459,1.672,3.263,2.258c1.828,1.335,2.714,3.523,1.214,5.579
		c-1.816,2.485-4.439,1.768-5.113,1.528l-1.232-0.429l-0.171,0.062c-0.033,1.428,0.125,8.884,0.257,9.954l0.679,0.749l0.021,0.146
		l-0.284,0.389l-0.141,0.02c-0.163-0.121-0.701-0.637-1.272-1.053c-0.392-0.289-1.083-0.765-1.561-1.018
		c0.347-2.328,0.443-8.621,0.05-11.016l0.378-0.229c2.08,1.518,4.459,2.528,6.287,0.025c1.455-1.995,0.85-3.628-0.994-4.98
		c-0.779-0.571-1.458-0.938-1.852-1.036c-0.508,0.514-1.135,1.246-1.555,1.824l-6.196,8.483c-0.558,0.756-0.924,1.303-1.064,1.585
		c-0.123,0.255,0.037,0.682,0.082,0.752c0.209,0.31,0.869,0.79,1.118,1.007l0.024,0.142l-0.287,0.395l-0.138,0.021
		c-0.267-0.199-1.214-1.015-2.448-1.915c-1.249-0.915-2.315-1.568-2.585-1.764l-0.02-0.141l0.282-0.393l0.146-0.023
		c0.282,0.175,0.938,0.656,1.3,0.763c0.076,0.025,0.532,0.044,0.742-0.151c0.22-0.212,0.63-0.734,1.184-1.498L78.721,240.056z
		 M92.217,261.685c-0.438,0.834-0.725,1.427-0.82,1.724c-0.083,0.271,0.134,0.673,0.192,0.734c0.253,0.276,0.976,0.658,1.259,0.832
		l0.038,0.137l-0.223,0.427l-0.136,0.04c-0.911-0.506-1.781-1.049-2.699-1.529c-0.924-0.485-1.883-0.906-2.819-1.367l-0.04-0.14
		l0.228-0.425l0.133-0.042c0.308,0.13,1.028,0.509,1.4,0.561c0.082,0.015,0.536-0.038,0.714-0.26
		c0.185-0.243,0.515-0.821,0.954-1.651l4.994-9.5c0.44-0.832,0.725-1.429,0.822-1.722c0.083-0.274-0.134-0.68-0.193-0.734
		c-0.255-0.282-0.975-0.658-1.255-0.833l-0.043-0.14l0.226-0.429l0.135-0.04c0.916,0.511,1.802,1.062,2.721,1.545
		c0.927,0.486,1.862,0.895,2.796,1.354l0.042,0.139l-0.222,0.429l-0.143,0.042c-0.304-0.13-1.021-0.508-1.396-0.561
		c-0.078-0.019-0.534,0.032-0.71,0.253c-0.183,0.251-0.518,0.821-0.953,1.655L92.217,261.685z M106.93,271.62
		c0.025-4.132-0.299-11.32-0.581-15.426c-0.17-2.159-0.194-2.407-1.694-2.974l-0.063-0.132l0.157-0.459l0.132-0.063
		c1.042,0.414,2.107,0.834,3.186,1.204c0.963,0.333,1.944,0.619,2.872,0.881l0.062,0.131l-0.165,0.482l-0.12,0.034
		c-1.582-0.488-1.779-0.448-1.977,0.125c-0.276,0.801,0.254,11.445,0.305,13.506l0.045,0.016c1.667-1.871,8.027-9.182,8.481-10.501
		c0.19-0.554-0.275-0.853-1.467-1.288l-0.069-0.108l0.164-0.474l0.125-0.065c0.805,0.325,1.583,0.647,2.399,0.934
		c0.696,0.238,1.411,0.434,2.075,0.607l0.064,0.128l-0.165,0.481l-0.12,0.038c-0.81-0.228-0.923-0.208-2.639,1.647
		c-3.373,3.628-6.801,7.883-9.995,11.623L106.93,271.62z M127.084,262.44c0.152-0.931,0.229-1.586,0.229-1.896
		c-0.008-0.287-0.344-0.597-0.411-0.635c-0.333-0.183-0.988-0.285-1.36-0.368l-0.084-0.118l0.074-0.476l0.118-0.087
		c1.553,0.271,3.172,0.608,4.829,0.874c1.963,0.316,3.93,0.548,5.892,0.837l0.38,0.367l-0.66,2.859l-0.401-0.065l-0.089-0.112
		c0.062-0.379-0.058-1.404-0.302-1.801c-0.671-0.313-2.059-0.664-3.162-0.843c-0.881-0.14-1.913-0.278-2.536-0.249
		c-0.191,0.716-0.552,2.486-0.683,3.318c-0.16,1.002-0.265,1.991-0.394,2.973c0.237,0.093,1.285,0.312,2.289,0.472
		c1.231,0.197,3.11,0.367,3.9,0.261l0.085,0.119l-0.216,1.354l-0.118,0.085c-0.301-0.203-0.993-0.391-3.254-0.749
		c-1.179-0.19-2.216-0.302-2.602-0.316l-0.32,0.235c-0.124,0.599-0.273,1.217-0.366,1.819c-0.19,1.186-0.534,3.805-0.668,5.15
		c0.565,0.172,1.887,0.455,3.039,0.64c1.051,0.168,2.472,0.318,3.372,0.155c0.501-0.694,0.634-0.907,1.034-1.801l0.604,0.102
		c-0.146,0.595-0.5,1.824-0.688,3.007l-0.348,0.255c-1.919-0.387-3.873-0.725-5.812-1.032c-1.883-0.302-3.442-0.521-4.633-0.637
		l-0.083-0.115l0.075-0.483l0.117-0.079c1.08-0.009,1.101-0.132,1.466-2.42L127.084,262.44z M145.955,264.891
		c-0.013-0.941-0.04-1.602-0.094-1.909c-0.057-0.276-0.438-0.528-0.515-0.55c-0.359-0.127-1.171-0.121-1.5-0.145l-0.103-0.102
		l-0.004-0.482l0.098-0.102c0.332-0.002,1.581,0.089,4.147,0.066c1.343-0.011,2.972-0.126,3.963-0.134
		c2.263-0.02,4.283,1.214,4.305,3.759c0.027,3.074-2.511,4.062-3.194,4.273l-1.244,0.391l-0.1,0.153
		c0.823,1.165,5.401,7.051,6.14,7.836l0.994,0.197l0.104,0.1l0.005,0.479l-0.099,0.103c-0.203,0.004-0.946-0.1-1.653-0.087
		c-0.486,0.006-1.323,0.033-1.86,0.114c-1.107-2.074-4.786-7.184-6.528-8.872l0.173-0.409c2.566-0.023,5.08-0.628,5.054-3.729
		c-0.02-2.471-1.477-3.422-3.766-3.405c-0.968,0.009-1.726,0.119-2.109,0.274c-0.095,0.713-0.164,1.682-0.157,2.391l0.089,10.509
		c0.003,0.94,0.036,1.598,0.089,1.902c0.055,0.279,0.436,0.532,0.512,0.56c0.357,0.121,1.17,0.115,1.503,0.139l0.104,0.102
		l0.003,0.481l-0.103,0.101c-0.33,0.004-1.573-0.09-3.103-0.074c-1.552,0.011-2.797,0.125-3.124,0.129l-0.105-0.105l-0.003-0.484
		l0.101-0.1c0.333-0.028,1.142-0.034,1.499-0.164c0.075-0.023,0.456-0.282,0.507-0.561c0.047-0.312,0.064-0.97,0.058-1.912
		L145.955,264.891z M167.649,273.617l0.113,0.079l0.433,1.554c0.061,0.172,1.304,1.501,3.907,1.034
		c2.378-0.431,3.677-2.112,3.221-4.666c-0.86-4.807-9.479-0.264-10.546-6.223c-0.585-3.278,2.276-5.346,5.457-5.913
		c1.198-0.21,2.651-0.318,3.943,0.119c-0.007,0.956-0.019,2.179,0.154,3.15l-0.578,0.106l-0.116-0.081
		c-0.188-0.743-0.246-0.942-0.541-1.74c-0.876-0.41-1.759-0.846-3.612-0.522c-2.301,0.418-3.118,2.042-2.821,3.711
		c0.964,5.388,9.514,0.472,10.521,6.105c0.71,3.957-2.122,6.324-5.778,6.979c-0.449,0.08-2.575,0.465-4.08-0.278
		c0.103-0.872-0.026-1.749-0.18-3.324L167.649,273.617z M189.445,269.2c0.288,0.892,0.518,1.516,0.66,1.789
		c0.135,0.251,0.576,0.374,0.656,0.374c0.373,0.015,1.152-0.236,1.471-0.318l0.133,0.069l0.149,0.461l-0.068,0.125
		c-0.998,0.296-1.989,0.54-2.979,0.86c-0.992,0.32-1.96,0.72-2.948,1.06l-0.127-0.066l-0.149-0.459l0.068-0.125
		c0.301-0.123,1.078-0.375,1.377-0.609c0.064-0.047,0.351-0.405,0.313-0.689c-0.047-0.308-0.225-0.942-0.514-1.836l-3.312-10.214
		c-0.288-0.892-0.514-1.518-0.661-1.792c-0.132-0.251-0.579-0.374-0.653-0.374c-0.378-0.015-1.152,0.24-1.475,0.318l-0.128-0.071
		l-0.146-0.459l0.064-0.125c0.998-0.302,2.013-0.544,3.008-0.866c0.987-0.323,1.933-0.711,2.919-1.054l0.126,0.063l0.15,0.463
		l-0.067,0.125c-0.306,0.131-1.079,0.384-1.38,0.607c-0.064,0.049-0.347,0.411-0.312,0.693c0.049,0.306,0.226,0.942,0.516,1.839
		L189.445,269.2z M195.553,255.562c-0.425-0.843-0.742-1.424-0.928-1.673c-0.172-0.227-0.621-0.282-0.7-0.271
		c-0.375,0.047-0.969,0.344-1.325,0.49l-0.132-0.045l-0.215-0.433l0.044-0.138c0.875-0.406,2.113-0.945,3.409-1.599
		c1.774-0.888,3.252-1.739,4.406-2.323c4.503-2.259,8.271-0.989,10.504,3.465c2.354,4.684,0.915,10.214-3.884,12.623
		c-1.316,0.658-2.111,0.945-3.34,1.564c-1.157,0.582-2,1.063-2.497,1.365l-0.141-0.044l-0.214-0.434l0.043-0.138
		c0.877-0.637,0.82-0.75-0.218-2.821L195.553,255.562z M208.903,254.719c-2.156-4.295-5.367-5.758-9.64-3.611
		c-1.524,0.763-1.933,1.083-2.672,1.595c0.743,1.481,1.323,2.98,2.06,4.435c1.468,2.932,3.038,5.845,4.559,8.756
		c0.817-0.184,2.123-0.531,2.945-0.941C210.154,262.945,211.115,259.129,208.903,254.719 M214.438,244.812
		c-0.56-0.754-0.979-1.271-1.199-1.484c-0.206-0.191-0.666-0.174-0.742-0.145c-0.359,0.11-0.891,0.504-1.21,0.709l-0.147-0.021
		l-0.285-0.389l0.02-0.143c1.283-0.919,2.658-1.845,4.003-2.843c1.594-1.183,3.142-2.427,4.721-3.628l0.529-0.015l1.577,2.473
		l-0.327,0.244l-0.14-0.027c-0.229-0.299-1.047-0.934-1.501-1.034c-0.693,0.262-1.915,1.009-2.81,1.671
		c-0.715,0.533-1.541,1.175-1.953,1.64c0.378,0.637,1.391,2.135,1.89,2.807c0.607,0.816,1.24,1.587,1.852,2.368
		c0.233-0.11,1.119-0.708,1.938-1.313c1.004-0.745,2.439-1.966,2.911-2.607l0.146,0.026l0.818,1.1l-0.02,0.144
		c-0.36,0.075-0.975,0.434-2.813,1.801c-0.96,0.713-1.771,1.376-2.043,1.643l-0.063,0.394c0.345,0.499,0.686,1.046,1.049,1.537
		c0.713,0.957,2.347,3.04,3.21,4.077c0.516-0.29,1.644-1.033,2.584-1.729c0.861-0.637,1.96-1.546,2.469-2.306
		c-0.146-0.837-0.199-1.085-0.559-1.995l0.493-0.363c0.32,0.522,0.953,1.635,1.669,2.597l-0.063,0.429
		c-1.617,1.098-3.23,2.263-4.804,3.431c-1.528,1.138-2.777,2.1-3.698,2.87l-0.138-0.023l-0.289-0.385l0.02-0.142
		c0.752-0.781,0.676-0.882-0.697-2.741L214.438,244.812z M47.938,200.777c2.544,0.534,4.246,1.706,5.377,3.757
		c2.067,3.751,0.255,6.722-2.417,8.195l-7.609,4.194c-2.05,1.13-2.159,1.892-1.488,3.108l-0.459,0.252l-3.079-5.587l0.459-0.253
		c0.699,1.268,1.441,1.528,3.41,0.443l7.825-4.313c2.375-1.31,3.345-3.57,1.903-6.19c-0.981-1.781-2.734-2.854-5.002-3.013
		l-9.309,5.132c-1.782,0.984-2.177,1.729-1.548,3.003l-0.458,0.253l-3.005-5.454l0.459-0.252c0.713,1.293,1.56,1.427,3.422,0.399
		l9.632-5.311c2.024-1.114,2.145-1.921,1.49-3.107l0.457-0.253l2.098,3.805L47.938,200.777z M40.909,173.654l0.142,0.505
		l-11.407,16.137l0.016,0.06l11.925-3.351c1.721-0.483,2.151-1.341,1.719-2.883l0.504-0.143l1.449,5.163l-0.504,0.143
		c-0.399-1.424-1.037-1.982-3.498-1.293l-9.938,2.794c-1.897,0.531-2.824,1.338-2.436,3.405l-0.504,0.141l-1.225-4.359l10.248-14.34
		l-0.016-0.06l-9.938,2.791c-2.224,0.623-2.621,1.376-2.205,2.86l-0.505,0.142l-1.44-5.133l0.505-0.143
		c0.465,1.662,1.298,2.005,3.285,1.444L40.909,173.654z M35.759,160.518c2.145-0.215,2.738-0.801,2.589-2.274l0.521-0.051
		l0.633,6.316l-0.52,0.055c-0.146-1.443-0.752-1.938-2.991-1.715l-10.944,1.1c-2.208,0.225-2.74,0.771-2.589,2.275l-0.522,0.053
		l-0.633-6.317l0.52-0.054c0.148,1.474,0.877,1.926,2.991,1.714L35.759,160.518z M39.295,142.396l-0.029,0.492l-14.629,4.582
		c-2.204,0.701-3.059,1.081-3.221,2.739l-0.524-0.032l0.386-6.399l0.523,0.031c-0.076,1.262,0.564,1.919,1.979,1.479l11.639-3.621
		l-10.732-4.753c-1.473-0.645-2.443-0.426-2.54,1.174l-0.523-0.032l0.31-5.138l0.555,0.033c-0.08,1.323,0.875,2.368,3.22,3.405
		L39.295,142.396z M37.058,115.229l-0.133,0.506c-1.554-0.026-1.803,0.195-2.265,1.954l-1.111,4.233l6.109,1.605
		c0.833,0.218,1.239,0.006,1.49-0.947l0.783-2.981c0.658-2.503,0.702-3.16-1.267-4.761l0.132-0.507l2.986,1.612l-3.233,12.311
		l-0.505-0.133c0.351-1.341,0.092-2.048-2.174-2.643l-10.668-2.802c-2.114-0.557-2.836-0.236-3.22,1.224l-0.507-0.132l3.232-12.312
		l2.861,0.751l-0.086,0.329c-1.979-0.105-2.284,0.45-2.778,2.33l-1.292,4.917l7.303,1.917l1.251-4.769
		c0.305-1.164,0.214-1.665-1.184-2.287l0.133-0.507L37.058,115.229z M45.277,103.041c1.937,0.949,2.762,0.735,3.398-0.565
		l0.471,0.23l-2.791,5.702l-0.47-0.229c0.596-1.218,0.493-1.99-1.638-3.033l-9.934-4.866c-2.076-1.016-2.721-0.68-3.344,0.594
		l-0.47-0.23l3.184-6.505c1.749-3.57,4.636-4.284,6.74-3.254c1.743,0.854,2.749,2.514,2.304,5.177
		c3.358-2.026,9.075-0.461,10.557-2.996l0.469,0.23l-1.584,3.239c-5.047,1.2-9.188,0.201-10.612,3.107l-0.621,1.273L45.277,103.041z
		 M40.268,100.589l0.948-1.939c1.315-2.685,0.003-4.63-1.823-5.526c-2.104-1.029-4.37-0.184-5.562,2.253l-0.812,1.66L40.268,100.589
		z M52.235,71.774l-0.313,0.42c-2.267-1.342-4.185-0.465-5.252,0.969c-1.103,1.484-1.078,3.155,0.231,4.13
		c2.621,1.95,5.997-1.146,9.534-1.665c1.724-0.254,2.797,0.161,3.736,0.86c2.226,1.655,2.688,4.803,1.034,7.029
		c-1.123,1.508-2.801,2.218-3.151,2.687c-0.184,0.247-0.14,0.549,0.14,0.949l-0.313,0.42l-3.832-2.851l0.312-0.42
		c2.64,1.924,5.104,0.417,6.023-0.819c1.269-1.707,1.127-3.58-0.406-4.721c-2.447-1.82-6.416,1.141-9.176,1.547
		c-1.51,0.221-2.754-0.168-3.868-0.996c-2.175-1.619-2.5-4.28-0.79-6.58c1.122-1.508,2.199-1.821,2.603-2.365
		c0.167-0.223,0.153-0.309-0.119-0.666l0.293-0.396L52.235,71.774z M69.008,68.813c1.537,1.512,2.366,1.592,3.403,0.537l0.373,0.368
		l-4.449,4.527l-0.374-0.368c1.017-1.032,1.009-1.816-0.596-3.394l-7.842-7.714c-1.583-1.555-2.347-1.613-3.405-0.538l-0.373-0.366
		l4.45-4.528l0.373,0.368c-1.037,1.054-0.921,1.903,0.595,3.395L69.008,68.813z M82.816,57.17c1.264,1.711,1.936,1.943,3.148,1.045
		l0.313,0.421l-5.029,3.721l-0.312-0.421c1.016-0.752,1.39-1.489-0.058-3.446l-8.005-10.829l-2.057,1.521
		c-1.907,1.411-2.372,2.598-1.395,4.176L69,53.669l-2.4-3.246l0.421-0.312c0.327,0.027,0.64-0.015,1.06-0.171
		c0.378-0.164,0.86-0.444,1.455-0.884l7.432-5.498c1.237-0.917,1.697-1.487,1.869-2.188l0.446-0.33l2.4,3.246l-0.272,0.201
		c-1.152-0.988-2.245-1.481-4.5,0.187l-2.155,1.593L82.816,57.17z M102.563,45.567c0.898,1.926,1.576,2.358,2.943,1.719l0.222,0.475
		l-5.835,2.727l-0.221-0.476c1.229-0.574,1.836-1.164,0.769-3.454l-2.347-5.028l-5.881-3.714c-1.938-1.238-2.583-1.38-3.865-0.849
		l-0.222-0.474l6.253-2.92l0.222,0.474c-1.758,0.821-1.667,1.526-0.569,2.205l5.423,3.385l0.664-5.208
		c0.194-1.622-0.297-2.82-1.638-2.195L98.26,31.76l4.383-2.048l0.221,0.476c-1.189,0.657-1.452,1.188-1.692,3.002l-0.956,7.351
		L102.563,45.567z M134.859,21.439c5.202-0.609,9.772,2.92,10.371,8.033c0.607,5.204-3.046,9.759-8.279,10.372
		c-5.233,0.612-9.81-2.98-10.419-8.183C125.924,26.458,129.505,22.066,134.859,21.439 M136.842,39.174
		c4.405-0.516,6.21-4.978,5.712-9.233c-0.645-5.51-3.944-8.258-7.555-7.836c-4.131,0.484-6.366,4.19-5.771,9.271
		C129.826,36.489,132.895,39.636,136.842,39.174 M159.381,35.697c-0.205,2.148,0.257,2.841,1.727,2.982l-0.051,0.522l-6.314-0.604
		l0.047-0.521c1.473,0.141,2.053-0.423,2.261-2.602l1.045-10.953c0.21-2.209-0.255-2.841-1.729-2.981l0.05-0.522l12.054,1.15
		l-0.299,3.129l-0.398-0.039c-0.225-2.188-0.735-2.361-2.637-2.542l-4.476-0.428l-0.703,7.364l4.57,0.436
		c1.317,0.126,1.873-0.502,2.161-1.899l0.491,0.046l-0.472,4.94l-0.49-0.046c0.059-1.264-0.486-2.059-1.712-2.176l-4.63-0.442
		L159.381,35.697z M205.813,39.016c0.522-3.399-0.573-5.448-3.375-6.656c-3.904-1.682-7.353,0.558-9.144,4.719
		c-2.098,4.87-0.955,9.153,2.695,10.726c2.546,1.096,4.954,0.724,7.194-1.129l0.255,0.579c-2.185,2.113-5.455,2.617-8.567,1.276
		c-3.906-1.682-6.834-6.099-4.507-11.505c2.22-5.152,7.39-7.42,12.228-5.336c2.038,0.878,3.273,2.215,4.235,2.63
		c0.425,0.184,0.781,0.135,1.098-0.131l0.452,0.195l-2.085,4.84L205.813,39.016z M220.847,54.982l-4.626-3.333l-3.045,2.173
		c-1.482,1.059-2.509,1.954-1.024,3.059l-0.308,0.426l-3.702-2.666l0.308-0.426c1.494,0.773,2.341,0.282,3.747-0.72l12.449-8.958
		l1.475,1.062l-4.727,15.319c-0.529,1.632-0.468,2.285,0.808,3.203l-0.306,0.425l-5.053-3.638l0.308-0.425
		c0.974,0.702,1.755,0.619,2.134-0.591L220.847,54.982z M223.554,46.373l-0.051-0.036l-6.377,4.636l4.025,2.9L223.554,46.373z
		 M236.118,79.126l-8.68-9.389l0.383-0.356c0.962,1.041,1.928,0.947,3.532-0.538l8.142-7.535c1.493-1.381,1.481-2.166,0.517-3.208
		l0.386-0.355l4.29,4.638l-0.386,0.355c-1.004-1.086-1.995-0.84-3.374,0.436l-8.663,8.015c-1.018,0.942-0.888,1.535,0.116,2.622
		l2.385,2.58c1.445,1.56,2.182,1.677,4.56,0.526l0.354,0.384L236.118,79.126z M246.199,87.694c-1.789,1.204-2.035,2-1.207,3.228
		l-0.436,0.292l-3.544-5.269l0.436-0.292c0.809,1.203,1.577,1.353,3.443,0.097l9.127-6.142c1.839-1.239,2.051-1.975,1.208-3.228
		l0.435-0.292l3.544,5.268l-0.436,0.292c-0.826-1.228-1.679-1.284-3.443-0.096L246.199,87.694z M253.753,101.287
		c-1.949,0.925-2.308,1.676-1.675,3.013l-0.474,0.224l-2.722-5.735l0.474-0.225c0.635,1.337,1.414,1.546,3.393,0.608l9.938-4.717
		c2.004-0.952,2.308-1.676,1.673-3.013l0.474-0.224l5.19,10.942l-2.838,1.348l-0.171-0.363c1.763-1.315,1.65-1.841,0.831-3.566
		l-1.93-4.066l-6.68,3.171l1.968,4.149c0.567,1.197,1.392,1.352,2.737,0.883l0.214,0.445l-4.483,2.127l-0.212-0.445
		c1.116-0.597,1.52-1.471,0.991-2.585l-1.994-4.205L253.753,101.287z M276.14,120.795c1.183,5.104-1.817,10.039-6.83,11.201
		c-5.103,1.183-10.034-1.945-11.222-7.079c-1.19-5.134,1.87-10.083,6.972-11.266C270.163,112.47,274.923,115.542,276.14,120.795
		 M258.742,124.734c0.998,4.323,5.634,5.622,9.808,4.655c5.399-1.252,7.764-4.838,6.944-8.38c-0.94-4.055-4.87-5.863-9.853-4.708
		C260.629,117.463,257.844,120.861,258.742,124.734 M264.721,146.197c-2.155-0.01-2.807,0.542-2.812,1.991l-0.526-0.002l0.03-6.351
		l0.524,0.003c-0.005,1.356,0.424,2.005,2.795,2.016l11.062,0.052c2.31,0.011,2.744-0.573,2.749-1.991l0.524,0.003l-0.032,7.242
		c-0.019,3.977-2.308,5.875-4.649,5.867c-1.94-0.009-3.568-1.066-4.328-3.658c-2.141,3.288-7.97,4.369-8.197,7.297l-0.524-0.004
		l0.016-3.602c4.022-3.279,8.186-4.188,8.2-7.424l0.009-1.417L264.721,146.197z M270.299,146.224l-0.01,2.157
		c-0.015,2.99,2.013,4.171,4.048,4.18c2.34,0.011,4.011-1.737,4.023-4.45l0.009-1.849L270.299,146.224z M256.963,181.965
		l0.119-0.509l17.754-8.671l0.015-0.059l-12.066-2.796c-1.741-0.403-2.532,0.142-2.892,1.704l-0.51-0.119l1.208-5.224l0.51,0.118
		c-0.333,1.439-0.043,2.236,2.448,2.813l10.054,2.328c1.922,0.444,3.121,0.186,3.774-1.816l0.51,0.12l-1.021,4.414l-15.873,7.646
		l-0.017,0.062l10.056,2.329c2.251,0.519,2.962,0.051,3.309-1.45l0.511,0.117l-1.203,5.195l-0.51-0.115
		c0.389-1.682-0.177-2.384-2.188-2.851L256.963,181.965z M254.919,196.526c-1.981-0.852-2.784-0.63-3.369,0.73l-0.48-0.208
		l2.512-5.83l0.481,0.207c-0.573,1.331-0.284,2.061,1.783,2.95l10.1,4.354c2.036,0.879,2.771,0.658,3.367-0.73l0.481,0.208
		l-2.512,5.829l-0.479-0.207c0.584-1.357,0.168-2.108-1.783-2.947L254.919,196.526z M248.411,216.198l3.101-4.783l-2.318-2.94
		c-1.128-1.429-2.074-2.407-3.104-0.872l-0.439-0.285l2.481-3.827l0.439,0.286c-0.698,1.528-0.167,2.353,0.9,3.705l9.554,12.001
		l-0.989,1.524l-15.527-3.973c-1.654-0.45-2.304-0.356-3.157,0.962l-0.439-0.282l3.385-5.227l0.439,0.286
		c-0.654,1.009-0.533,1.785,0.695,2.104L248.411,216.198z M257.14,218.48l0.033-0.052l-4.939-6.142l-2.699,4.163L257.14,218.48z
		 M153.316,45.161c-0.222-0.455-0.455-0.926-0.687-1.394 M243.461,189.23c0.348,0.145,0.749-0.021,0.896-0.37
		c0.143-0.352-0.023-0.753-0.373-0.896l-19.249-7.976c-0.579,0.275-1.157,0.53-1.732,0.766L243.461,189.23z M251.443,150.452
		c0.378,0,0.684-0.307,0.684-0.685s-0.306-0.686-0.684-0.686h-23.89c0.603,0.522,1.104,0.996,1.481,1.371H251.443z M249.36,170.234
		c0.37,0.076,0.732-0.166,0.805-0.538c0.074-0.369-0.167-0.731-0.537-0.806l-13.459-2.676c-0.039,0.45-0.104,0.9-0.193,1.357
		L249.36,170.234z M234.44,168.188c-1.509,5.518-6.615,8.968-11.489,11.063l1.783,0.739c4.798-2.27,9.5-5.855,11.029-11.441
		c0.089-0.328,0.15-0.651,0.212-0.976l-1.331-0.266C234.587,167.6,234.521,167.891,234.44,168.188 M234.645,167.307l1.331,0.266
		c0.089-0.457,0.154-0.907,0.193-1.357l-1.345-0.268C234.791,166.397,234.731,166.85,234.645,167.307 M144.293,120.545l0.322-1.332
		c-9.262-2.24-18.836-3.376-28.456-3.376c-3.529,0-7.085,0.155-10.57,0.458l0.119,1.365c3.446-0.301,6.963-0.453,10.452-0.453
		C125.671,117.208,135.136,118.332,144.293,120.545 M181.609,108.747c4.154,0,8.348,0.216,12.459,0.644l0.141-1.363
		c-4.157-0.432-8.398-0.651-12.6-0.651c-8.894,0-17.76,0.972-26.359,2.889l0.299,1.338
		C164.048,109.708,172.817,108.747,181.609,108.747 M114.594,125.689c10.036,0,20.006,1.248,29.633,3.71l0.338-1.327
		c-9.737-2.49-19.822-3.754-29.972-3.754c-2.913,0-5.864,0.107-8.771,0.315l0.098,1.367
		C108.796,125.793,111.713,125.689,114.594,125.689 M155.433,128.072l0.339,1.327c9.629-2.462,19.602-3.71,29.637-3.71
		c2.88,0,5.799,0.104,8.674,0.311l0.101-1.367c-2.912-0.208-5.863-0.315-8.774-0.315
		C175.258,124.318,165.174,125.582,155.433,128.072 M180.362,100.184c4.582,0,9.201,0.263,13.724,0.781l0.156-1.36
		c-4.575-0.525-9.247-0.791-13.88-0.791c-8.42,0-16.832,0.873-25.002,2.595l0.282,1.341
		C163.721,101.047,172.036,100.184,180.362,100.184 M105.762,99.604l0.156,1.36c4.521-0.519,9.138-0.781,13.72-0.781
		c8.327,0,16.644,0.864,24.719,2.566l0.282-1.341c-8.167-1.722-16.579-2.595-25.001-2.595
		C115.004,98.814,110.335,99.08,105.762,99.604 M155.385,119.214l0.321,1.332c9.158-2.214,18.625-3.337,28.138-3.337
		c3.486,0,7.002,0.152,10.449,0.453l0.121-1.365c-3.488-0.304-7.045-0.458-10.57-0.458
		C174.221,115.838,164.646,116.974,155.385,119.214 M105.792,108.027l0.142,1.363c4.109-0.428,8.301-0.644,12.458-0.644
		c8.793,0,17.563,0.961,26.063,2.856l0.298-1.338c-8.6-1.917-17.469-2.889-26.362-2.889
		C114.186,107.376,109.948,107.595,105.792,108.027 M105.918,149.752l0.039,1.369l3.474-0.051c11.86,0,23.571,1.736,34.807,5.16
		l0.399-1.312c-11.366-3.463-23.211-5.218-35.207-5.218L105.918,149.752z M144.311,138.3l0.354-1.324
		c-10.16-2.724-20.695-4.106-31.315-4.106c-2.5,0-5.03,0.078-7.521,0.231l0.084,1.368c2.462-0.152,4.964-0.229,7.437-0.229
		C123.849,134.24,134.266,135.606,144.311,138.3 M105.982,141.458l0.06,1.368l5.329-0.115c11.199,0,22.285,1.55,32.949,4.607
		l0.376-1.316c-10.786-3.092-21.998-4.661-33.325-4.661L105.982,141.458z M150,13.448c-75.271,0-136.508,61.257-136.508,136.549
		c0,35.063,13.272,68.4,37.372,93.867l0.503,0.528l6.663-7.211c1.165,0.641,2.298,1.518,3.296,2.59l0.733,0.892l-6.94,7.505
		l0.488,0.467c25.525,24.45,59.048,37.918,94.393,37.918c35.346,0,68.869-13.468,94.397-37.918l0.486-0.467l-6.581-7.116
		c0.623-1.025,1.386-1.979,2.294-2.822c0.397-0.371,0.831-0.722,1.34-1.082l6.702,7.245l0.501-0.528
		c24.098-25.463,37.368-58.797,37.368-93.867C286.508,74.705,225.271,13.448,150,13.448 M58.986,236.149l13.918-15.059l-0.103-0.112
		c-1.208-2.384-1.206-4.738,0.022-5.883c1.74-1.623,5.739-0.273,8.735,2.942c2.986,3.215,4.04,7.301,2.3,8.925
		c-1.119,1.034-3.265,0.833-5.479-0.375c-0.42-0.395-0.842-0.788-1.257-1.188l-0.504-0.488l-13.622,14.737l-0.669-0.81
		C61.317,237.752,60.172,236.842,58.986,236.149 M70.583,218.479c-16.421-19.037-25.436-43.241-25.436-68.481
		c0-56.205,44.418-102.22,99.98-104.777c-0.772,1.566-1.366,2.771-1.46,2.961c-0.542,0.079-9.375,1.363-12.81,1.862
		c-0.701,0.102-1.181,0.172-1.316,0.191c-0.027,0.004-0.04,0.006-0.04,0.006l0.039,0.039c0.002,0.032-0.006,0.063,0,0.096
		l7.884,39.649c-3.535-0.481-12.086-0.847-11.762-0.839L111.817,55.75c-0.145-0.35-0.546-0.515-0.895-0.37
		c-0.35,0.145-0.515,0.545-0.37,0.895l13.615,32.883c-0.251-0.004-0.49-0.012-0.745-0.016c-4.491,0.062-8.954,0.317-12.795,0.612
		c0.036-0.002,0.069-0.005,0.106-0.008L94.212,65.011c-0.21-0.315-0.635-0.399-0.95-0.189c-0.315,0.21-0.399,0.635-0.189,0.95
		L109.17,89.87c0.015-0.001,0.032-0.001,0.047-0.003c-1.617,0.133-3.102,0.271-4.397,0.4c0.003-0.001-0.254,0.027-0.254,0.027
		c-3.774,0.266-7.731,0.703-11.73,1.298c0.002-0.001-0.009,0.001-0.026,0.003c0.001,0,0.008-0.001,0.009-0.001l-14.06-14.065
		c-0.268-0.267-0.702-0.267-0.969,0c-0.268,0.268-0.268,0.701,0,0.969l13.36,13.363c0.258-0.046-4.999,0.885-4.999,0.885
		c-0.328,0.058-0.543,0.338-0.543,0.671v12.485L66.034,92.821c-0.314-0.21-0.739-0.126-0.949,0.189
		c-0.21,0.314-0.126,0.74,0.189,0.95l20.334,13.59v14.795L56.54,110.302c-0.349-0.144-0.751,0.022-0.895,0.372
		c-0.146,0.349,0.022,0.75,0.371,0.894l29.592,12.262v12.426l-34.969-6.957c-0.371-0.075-0.732,0.167-0.805,0.537
		c-0.073,0.371,0.167,0.731,0.538,0.806l35.236,7.011v11.43H48.559c-0.378,0-0.684,0.308-0.684,0.686s0.306,0.685,0.684,0.685
		h37.049v1.354c-9.608,0.904-11.149,5.476-11.391,6.965c-0.368,2.234-0.78,4.076-1.194,5.613l-22.65,4.506
		c-0.371,0.074-0.611,0.437-0.538,0.806c0.073,0.372,0.435,0.614,0.805,0.538l21.956-4.367c-0.411,1.322-0.806,2.354-1.142,3.105
		c-0.022-0.031-1.008,2.237-1.008,2.237c0.002-0.006-1.529,3.465-1.529,3.465c-0.919,2.125-0.672,5.154,0.63,7.682l-13.531,5.608
		c-0.349,0.146-0.516,0.544-0.371,0.896c0.145,0.351,0.545,0.515,0.895,0.37l13.725-5.686c0.815,1.154,1.881,2.132,3.2,2.758
		c2.249,1.063,5.739,1.617,8.796-0.02c1.065-0.57,2.278-1.521,3.347-3.116v8.816l-20.334,13.591
		c-0.315,0.211-0.399,0.636-0.189,0.951c0.21,0.314,0.635,0.399,0.949,0.189l19.574-13.084v15.665c0,0.363,0.284,0.663,0.648,0.682
		c0.764,0.04,1.643,0.063,2.609,0.074h-0.096l-6.626,6.628c-3.558-3.552-7.979-4.704-10.251-2.588
		C70.794,215.113,70.358,216.692,70.583,218.479 M228.214,214.092c-0.787-0.732-1.872-1.096-3.138-1.053
		c-2.294,0.081-4.938,1.458-7.155,3.693l-6.681-6.681h-0.097c0.962-0.011,1.841-0.034,2.604-0.074
		c0.361-0.019,0.648-0.318,0.648-0.682v-15.667l19.574,13.086c0.315,0.21,0.74,0.125,0.95-0.189c0.211-0.315,0.126-0.74-0.188-0.951
		l-20.336-13.593v-8.688c2.02-0.391,5.242-1.157,8.606-2.539c0.575-0.235,1.153-0.49,1.732-0.766l-1.783-0.739
		c-0.613,0.266-1.223,0.506-1.822,0.729c-2.719,1.01-5.2,1.604-6.733,1.914c-0.439,0.09-0.807,0.157-1.072,0.204
		c-0.098,0.016-0.199,0.023-0.299,0.04c-1.119,0.181-2.268,0.3-3.431,0.381c-0.454,0.031-0.909,0.062-1.369,0.08
		c-1.119,0.039-2.255,0.036-3.397,0c-0.456-0.017-0.911-0.025-1.37-0.053c-1.121-0.062-2.253-0.163-3.387-0.284
		c-0.455-0.049-0.911-0.09-1.368-0.148c-7.272-0.918-14.637-2.89-20.985-4.707c-1.005-0.289-1.993-0.575-2.944-0.852l-0.19-0.055
		l-2.999-0.864l0.002-0.002c-0.115-0.034-0.22-0.06-0.332-0.094l-0.1-0.027h-0.002c-4.381-1.238-7.545-1.996-9.678-2.045
		c0.186-0.389,0.372-0.889,0.527-1.494c0.114-0.436,0.209-0.935,0.271-1.492c0.198-1.732,0.081-4.055-0.792-7.042
		c-0.122-0.423-0.257-0.858-0.414-1.308c-0.011-0.03-0.018-0.058-0.029-0.088c-0.304-0.872-0.142-1.581,0.511-2.234
		c2.59-2.6,11.605-3.039,18.528-1.039c0.418,0.121,0.828,0.244,1.229,0.385l1.861,0.74l3.153,1.258
		c3.545,1.488,7.802,3.271,12.383,4.538c0.453,0.126,0.909,0.249,1.368,0.361c1.114,0.278,2.245,0.521,3.387,0.718
		c0.456,0.08,0.91,0.154,1.37,0.219c1.126,0.156,2.26,0.263,3.397,0.312c0.456,0.018,0.912,0.028,1.369,0.028
		c1.145,0,2.29-0.061,3.431-0.196c0.46-0.055,0.915-0.127,1.371-0.205c2.229-0.387,4.439-1.068,6.592-2.134
		c0.099-0.049,0.189-0.1,0.286-0.146c0.669-0.338,1.304-0.675,1.905-1.018c4.309-2.447,6.871-5.006,7.616-7.621
		c0.124-0.435,0.153-0.826,0.175-1.214c1.94,2.632,3.892,6.261,3.892,10.254c0,0.297-0.014,0.597-0.037,0.899l1.345,0.268
		c0.543-6.209-3.384-11.665-5.983-14.542l-0.004,0.004v-0.002l0.002-0.002c0,0-0.022-0.023-0.035-0.038
		c-0.153-0.191-0.546-0.686-0.546-0.686s-0.259-0.211-0.387-0.316c-0.056-0.056-0.119-0.119-0.181-0.181
		c-0.378-0.375-0.879-0.849-1.481-1.371c-2.826-2.449-7.901-5.948-13.158-5.19v-5.437c1.304,0.659,2.581,1.188,3.795,1.57
		c5.656,1.777,11.189,1.261,16.447-1.534c2.59-1.377,4.544-3.575,6.027-6.066l8.963-1.783c0.37-0.074,0.611-0.435,0.537-0.806
		c-0.072-0.371-0.435-0.612-0.805-0.537l-7.842,1.56c3.267-6.564,3.66-14.367,3.597-15.052v-0.009
		c-0.043-0.452-0.115-0.873-0.193-1.23c-0.106-0.26-0.246-0.423-0.399-0.423c-0.065,0-0.127,0.036-0.185,0.089l-0.356,0.865
		l-0.246,0.598c-3.331,8.794-10.401,10.488-12.346,10.668c-0.246-1.376-0.396-5.149-1.076-9.119l13.67-5.679
		c0.35-0.145,0.516-0.545,0.373-0.894c-0.146-0.351-0.548-0.516-0.896-0.372l-13.26,5.472c-0.143-0.829-2.86-11.522-2.888-11.6
		c-0.102-0.569-0.329-0.968-0.597-0.968c-0.205,0-0.382,0.235-0.501,0.593c-0.053,0.16-0.089,0.346-0.116,0.547l-0.015,0.072
		l-0.195,1.786l-0.353,3.937c-0.161,3.066-0.454,5.684-0.841,7.932l-10.301,4.27v-14.793l20.336-13.592
		c0.314-0.21,0.399-0.635,0.188-0.95c-0.21-0.315-0.635-0.399-0.95-0.189l-19.574,13.082V93.417c0-0.333-0.217-0.614-0.544-0.671
		l-5.001-0.875l13.368-13.373c0.27-0.268,0.27-0.702,0-0.969c-0.266-0.267-0.7-0.267-0.968,0l-14.062,14.066l-0.042-0.006
		c-3.979-0.592-7.936-1.03-11.741-1.298c0.031,0.003-0.228-0.025-0.228-0.025c-1.293-0.128-2.777-0.266-4.391-0.399
		c0.014,0.002,0.03,0.002,0.045,0.003l16.097-24.098c0.21-0.314,0.125-0.739-0.189-0.95c-0.313-0.21-0.739-0.125-0.949,0.189
		l-16.524,24.734c0.017,0.001,0.03,0.001,0.044,0.003c-3.825-0.293-8.26-0.546-12.713-0.607c-0.319,0.005-0.598,0.009-0.757,0.013
		l13.615-32.881c0.146-0.349-0.021-0.748-0.37-0.895c-0.349-0.145-0.748,0.021-0.895,0.37l-13.846,33.437
		c-4.552,0.112-8.476,0.392-11.778,0.84c0.003,0,0.007,0,0.009-0.001l7.886-39.649c0.005-0.034-0.003-0.064,0-0.096
		c0.024-0.024,0.04-0.039,0.04-0.039s-0.016-0.002-0.04-0.006c-0.137-0.019-0.616-0.089-1.317-0.191
		c-3.435-0.499-12.266-1.784-12.81-1.862c-0.089-0.18-0.677-1.373-1.46-2.961c55.563,2.557,99.979,48.573,99.979,104.777
		c0,25.175-8.969,49.317-25.313,68.335C229.724,216.607,229.279,215.086,228.214,214.092 M215.316,227.963
		c0.918,0.855,2.236,1.155,3.724,0.971c-19.125,16.77-43.441,25.947-69.04,25.947c-25.609,0-49.933-9.183-69.06-25.965
		c1.536,0.222,2.906-0.076,3.851-0.95c2.245-2.096,1.465-6.509-1.72-10.277l7.625-7.63h-0.148c3.219-0.007,7.216-0.113,11.615-0.233
		c2.257-0.06,4.612-0.123,7.011-0.177l-16.106,24.11c-0.209,0.314-0.125,0.739,0.188,0.949c0.315,0.21,0.74,0.127,0.951-0.188
		l16.638-24.907c3.181-0.065,6.413-0.104,9.6-0.102c0.943,1.089,1.897,2.069,2.854,2.949l-12.751,30.797
		c-0.145,0.349,0.022,0.747,0.37,0.895c0.349,0.146,0.749-0.021,0.894-0.372l12.573-30.358c4.031,3.409,8.001,5.148,11.049,6.104
		l-5.894,29.635c-0.073,0.369,0.167,0.732,0.538,0.805c0.371,0.074,0.731-0.166,0.806-0.537l5.869-29.521
		c1.134,0.302,2.092,0.501,2.806,0.644l0.23,0.047c1.999,0.405,5.351,1.081,9.529,1.287v29.357c0,0.378,0.306,0.686,0.684,0.686
		c0.379,0,0.685-0.308,0.685-0.686v-29.31c3.756,0.085,8.09-0.246,12.673-1.467l5.758,28.962c0.074,0.371,0.433,0.611,0.806,0.537
		c0.371-0.072,0.612-0.436,0.538-0.805l-5.781-29.074c3.731-1.125,7.602-2.855,11.44-5.452l12.07,29.146
		c0.146,0.351,0.546,0.518,0.895,0.372c0.351-0.146,0.517-0.546,0.37-0.895l-12.188-29.438c1.182-0.854,2.358-1.783,3.523-2.813
		c0.559-0.494,1.074-0.991,1.559-1.488c2.272,0.016,4.553,0.05,6.806,0.099l16.636,24.904c0.21,0.315,0.636,0.398,0.949,0.188
		c0.314-0.21,0.399-0.635,0.189-0.949l-16.104-24.108c2.399,0.052,4.756,0.115,7.013,0.175c4.367,0.12,8.337,0.227,11.544,0.233
		h-0.069l7.682,7.688c-1.935,2.307-3.037,4.929-2.956,7.149C214.083,226.169,214.525,227.229,215.316,227.963 M85.608,180.057
		c-0.909,2.356-2.242,4.085-3.992,5.019c-2.609,1.397-5.619,0.909-7.565-0.011c-1.021-0.483-1.847-1.208-2.493-2.059
		c-0.283-0.369-0.534-0.761-0.748-1.17c-1.148-2.202-1.322-4.847-0.644-6.541c0.174-0.174,1.064-0.904,4.096-1.42
		c2.104,2.438,4.349,3.513,6.409,3.876c1.311,0.229,2.542,0.175,3.615-0.015c0.475-0.087,0.917-0.191,1.322-0.314V180.057z
		 M75.986,173.637c2.144-0.242,4.65-0.367,7.647-0.316c0.67,0.009,1.326,0.043,1.974,0.092v2.586
		c-0.165,0.055-0.346,0.104-0.523,0.154l-1.185,0.259C81.646,176.751,78.738,176.376,75.986,173.637 M85.608,172.04
		c-0.641-0.048-1.289-0.078-1.951-0.091c-3.708-0.063-6.825,0.098-9.266,0.481l-1.134,0.234c-0.921,0.19-1.649,0.4-2.225,0.613
		c0.344-0.783,0.667-1.514,0.667-1.514c0.003-0.005,0.99-2.278,0.99-2.278c0.42-0.897,0.92-2.185,1.428-3.921
		c0.133-0.459,0.268-0.957,0.401-1.478c0.367-1.436,0.725-3.112,1.047-5.072c0.204-1.252,1.524-5.018,10.044-5.838
		c0.435-0.042,0.894-0.074,1.369-0.102c0.499-0.027,1.014-0.047,1.559-0.056c0.633-0.01,1.254,0.011,1.872,0.034
		c0.461,0.015,0.917,0.047,1.371,0.081c1.153,0.085,2.285,0.223,3.396,0.423c0.46,0.085,0.916,0.19,1.371,0.295
		c1.142,0.261,2.272,0.57,3.386,0.964c0.458,0.161,0.914,0.352,1.37,0.534c1.662,0.673,3.307,1.478,4.949,2.455
		c0.266,0.159,0.507,0.32,0.768,0.481c0.723,0.445,1.428,0.89,2.102,1.338c3.593,2.396,6.514,4.874,8.952,7.373
		c0.492,0.507,0.966,1.015,1.42,1.521c2.392,2.666,4.291,5.344,5.924,7.979c0.318,0.514,0.627,1.025,0.927,1.532
		c1.046,1.772,1.998,3.521,2.919,5.219c0.559,1.029,1.105,2.033,1.656,3.012c0.312,0.555,0.627,1.098,0.945,1.633
		c1.718,2.896,3.557,5.49,6.001,7.632c0.982,0.856,2.055,1.646,3.263,2.349c0.278,0.163,0.548,0.308,0.816,0.448
		c0.759,0.402,1.493,0.732,2.259,1.024c1.249,0.472,2.598,0.846,4.336,1.264c0.037,0.031,0.08,0.063,0.117,0.098
		c0.067-0.009,0.133-0.017,0.201-0.025c0.337,0.08,0.674,0.161,1.043,0.246c0.107,0.025,1.54,0.342,3.91,0.559
		c1.992,0.185,4.641,0.301,7.746,0.114c6.395-0.384,11.427-2.231,13.458-4.94c0.11-0.152,0.21-0.303,0.302-0.458
		c3.919,0.159,7.281-0.189,8.606-0.566c0.088-0.024,0.204-0.063,0.323-0.109c0.676,1.13,1.243,2.567,1.304,4.242v0.004
		c0.016,0.455-0.014,0.909-0.072,1.367c-0.11,0.845-0.346,1.692-0.703,2.544c-0.196,0.461-0.436,0.925-0.703,1.388
		c-0.594,1.023-1.375,2.047-2.325,3.074c-0.422,0.455-0.876,0.909-1.366,1.363c-0.168,0.155-0.317,0.312-0.494,0.465
		c-1.044,0.924-2.097,1.767-3.155,2.545c-0.381,0.278-0.763,0.548-1.146,0.812c-3.743,2.566-7.522,4.282-11.171,5.396
		c-0.442,0.136-0.884,0.264-1.32,0.38c-4.484,1.206-8.727,1.531-12.403,1.45c-0.467-0.013-0.922-0.027-1.369-0.051
		c-4.058-0.202-7.313-0.86-9.256-1.253l-0.231-0.047c-0.71-0.145-1.671-0.34-2.811-0.651c-0.415-0.112-0.855-0.242-1.317-0.389
		c-2.984-0.955-6.851-2.694-10.762-6.091c-0.359-0.312-0.717-0.641-1.077-0.982c-0.522-0.493-1.042-1.015-1.56-1.571
		c-0.406-0.438-0.808-0.898-1.208-1.376c-0.774-0.923-1.539-1.917-2.287-3.004c-0.309-0.45-0.616-0.917-0.918-1.398
		c-0.514-0.812-1.018-1.665-1.51-2.567c-0.246-0.449-0.487-0.913-0.727-1.39c-0.308-0.609-0.613-1.232-0.911-1.884
		c-0.875-1.913-1.759-3.704-2.654-5.382c-0.262-0.492-0.524-0.974-0.788-1.447c-1.303-2.327-2.635-4.409-4.007-6.28
		c-0.347-0.476-0.696-0.938-1.049-1.382c-1.583-1.997-3.221-3.72-4.943-5.163c-0.451-0.378-0.909-0.736-1.37-1.078
		c-1.094-0.812-2.222-1.526-3.386-2.14c-0.452-0.238-0.908-0.463-1.371-0.672c-1.096-0.498-2.229-0.91-3.396-1.248
		c-0.451-0.132-0.909-0.252-1.371-0.36c-1.109-0.259-2.252-0.454-3.431-0.589C86.525,172.114,86.069,172.072,85.608,172.04
		 M86.977,151.707V93.993c0.501-0.088,2.11-0.37,3.431-0.601v58.294c-0.627-0.021-1.253-0.045-1.892-0.036
		C87.981,151.66,87.473,151.68,86.977,151.707 M92.309,93.057c0-0.022,0.708-0.108,0.708-0.108c0.722-0.108,1.44-0.204,2.157-0.3
		v59.538c-1.116-0.197-2.248-0.333-3.396-0.422V93.151c0.323-0.057,0.53-0.092,0.53-0.092V93.057z M96.545,152.465V92.469
		c1.137-0.144,2.265-0.271,3.386-0.388v61.314C98.817,153.021,97.687,152.718,96.545,152.465 M131.249,51.944
		c2.832,2.76,8.146,7.943,8.504,8.29c-0.115,0.672-2.419,14.113-2.419,14.113s9.322-4.905,11.985-6.306v25.996v0
		c-1.912-1.723-5.382-2.985-10.468-3.799c0.003,0,0.008,0.001,0.013,0.002L131.249,51.944z M149.316,96.006v103.379
		c-2.071-0.488-3.589-0.901-4.982-1.46c-0.429-0.204-0.874-0.407-1.335-0.603c-0.388-0.191-0.779-0.397-1.185-0.633
		c-3.536-2.054-5.933-4.932-8.058-8.315c3.497,0.921,6.954,2.01,10.358,3.281l0.479-1.282c-3.891-1.452-7.847-2.679-11.855-3.679
		c-0.762-1.312-1.506-2.68-2.275-4.098c-0.733-1.352-1.501-2.762-2.333-4.209c5.447,1.063,10.808,2.532,16.042,4.447l0.47-1.287
		c-5.685-2.08-11.515-3.655-17.444-4.744c-1.581-2.624-3.431-5.348-5.754-8.084c7.801,0.934,15.465,2.657,22.908,5.169l0.438-1.3
		c-8.007-2.702-16.272-4.487-24.683-5.383c-2.333-2.546-5.108-5.083-8.517-7.535c11.152,0.229,22.138,2.04,32.681,5.427l0.42-1.304
		c-11.323-3.635-23.146-5.494-35.143-5.532c-0.832-0.548-1.696-1.096-2.6-1.633c-1.853-1.104-3.734-1.998-5.649-2.734V91.943
		c1.141-0.109,2.274-0.207,3.391-0.286c0.031-0.002,0.26-0.028,0.26-0.028c4.588-0.456,11.513-1.021,18.472-1.117
		C142.086,90.739,147.827,93.595,149.316,96.006 M161.149,90.24c-5.081,0.814-8.549,2.075-10.462,3.795V68.043
		c2.673,1.406,11.982,6.304,11.982,6.304s-2.306-13.441-2.421-14.113c0.357-0.347,5.672-5.53,8.505-8.29l-7.616,38.297
		C161.142,90.241,161.146,90.241,161.149,90.24 M176.597,90.512c6.941,0.096,13.865,0.661,18.449,1.117
		c0.004,0,0.232,0.025,0.232,0.025c1.13,0.08,2.274,0.179,3.424,0.288v32.933c-3.88,1.641-6.166,4.212-7.37,6.014
		c-0.452,0.674-0.83,1.372-1.13,2.035c-1.185-0.034-2.371-0.055-3.55-0.055c-10.62,0-21.155,1.382-31.316,4.106l0.354,1.324
		c10.045-2.694,20.464-4.061,30.962-4.061c1.011,0,2.027,0.022,3.043,0.048c-0.197,0.7-0.254,1.286-0.112,1.629
		c0.344,0.829,0.93,2.934,1.581,5.478l-2.535-0.055c-11.329,0-22.537,1.569-33.323,4.661l0.379,1.316
		c10.66-3.057,21.744-4.607,32.944-4.607l2.886,0.062c0.573,2.284,1.175,4.777,1.691,6.966l-2.637-0.038
		c-11.994,0-23.838,1.755-35.207,5.218l0.4,1.312c11.238-3.424,22.948-5.16,34.807-5.16l2.961,0.044
		c0.319,1.357,0.591,2.528,0.782,3.351l0.361,1.541c0.352,1.447,1.708,2.643,3.719,3.286c0.1,0.03,0.206,0.054,0.31,0.085v4.888
		c-4.373-1.238-8.448-2.947-11.854-4.374l-0.448-0.181c1.473-0.055,2.948-0.084,4.426-0.084l3.283,0.048l0.039-1.369l-3.322-0.047
		c-2.488,0-4.966,0.096-7.436,0.253l-1.64-0.653c-7.722-2.667-18.012-2.188-21.173,0.984c-0.702,0.703-1.057,1.519-1.057,2.403
		c0,0.395,0.072,0.807,0.218,1.226c-1.483,0.414-2.963,0.854-4.432,1.324l0.419,1.304c1.469-0.47,2.943-0.909,4.428-1.318
		c0.626,2.114,0.853,3.849,0.853,5.237c0,0.7-0.057,1.313-0.146,1.845c-1.895,0.531-3.782,1.1-5.651,1.728l0.438,1.3
		c1.59-0.537,3.194-1.032,4.806-1.495c-0.177,0.461-0.584,1.058-0.584,1.058c-1.46,0.206-2.955,1.89-3.771,4.282
		c-1.066,3.12-1.011,7.648,1.942,11.689c-0.895,0.308-1.79,0.61-2.676,0.94l0.478,1.284c1.034-0.385,2.072-0.747,3.115-1.1
		c0.14,0.156,0.273,0.313,0.422,0.465c1.584,1.635,3.785,2.789,6.229,3.596c-5.55,1.346-10.377,3.079-13.331,5.325
		c-0.695-0.092-1.238-0.183-1.591-0.244V96.007C152.173,93.597,157.914,90.739,176.597,90.512 M203.457,124.944
		c0.44-0.07,0.899-0.125,1.37-0.17c0.716-0.069,1.461-0.11,2.249-0.11c0.481,0,0.855,0.055,1.148,0.153
		c0.223,0.075,0.401,0.172,0.511,0.303c0.408,0.489,0.215,1.592,0.01,2.762c-0.224,1.274-0.477,2.717-0.081,4.031l0.068,0.227
		l0.033,0.024c0.19,0.483,0.479,0.982,0.828,1.493c0.483,0.708,1.104,1.441,1.894,2.207c-0.649-0.225-1.276-0.423-1.894-0.605
		c-0.467-0.138-0.924-0.265-1.369-0.378c-1.198-0.304-2.332-0.523-3.397-0.652c-0.471-0.057-0.925-0.092-1.37-0.115
		c-1.229-0.063-2.357,0.004-3.387,0.203c-0.477,0.093-0.936,0.21-1.368,0.359c-0.706,0.243-1.353,0.561-1.939,0.953
		c-1.824,1.225-2.966,3.2-3.494,5.812l-0.217,1.366c-0.013,0.105-0.03,0.203-0.041,0.309c-0.027-0.105-0.052-0.206-0.08-0.312
		c-0.117-0.468-0.233-0.927-0.347-1.376c-0.705-2.766-1.352-5.107-1.734-6.034c0-0.008-0.002-0.02-0.002-0.031
		c0-0.142,0.078-0.516,0.257-1.031c0.13-0.376,0.32-0.832,0.582-1.345c0.42-0.821,1.019-1.775,1.874-2.765
		c1.137-1.315,2.803-2.758,5.142-3.846c0.433-0.202,0.889-0.393,1.368-0.566C201.089,125.442,202.213,125.145,203.457,124.944
		 M200.07,124.365V92.081c1.123,0.117,2.252,0.245,3.387,0.388v31.095C202.226,123.748,201.1,124.023,200.07,124.365
		 M208.225,93.151v30.263c-0.345-0.072-0.717-0.121-1.148-0.121c-0.788,0-1.529,0.046-2.249,0.11V92.649
		c0.711,0.096,1.423,0.191,2.139,0.297c0.019,0.003,0.744,0.091,0.744,0.091c-0.011-0.001-0.006,0.023-0.017,0.021
		C207.693,93.059,207.901,93.094,208.225,93.151 M214.396,133.749c0.867-0.032,1.642-0.17,2.202-0.379
		c3.468-1.284,7.42-4.174,9.317-14.316c0.096-0.516,0.192-1.042,0.277-1.597c0.325-2.116,0.684-4.743,0.826-7.469
		c0,0,0.018-0.208,0.045-0.501c1.779,2.665,2.883,17.703,2.955,18.018l0.112,0.497l0.603,0.061
		c1.314,0.093,8.478-1.302,12.785-8.758c-0.429,3.103-1.474,7.875-3.726,11.897c-0.307,0.548-0.638,1.081-0.99,1.593
		c-1.271,1.849-2.847,3.443-4.809,4.485c-4.921,2.618-10.101,3.101-15.395,1.436c-0.906-0.284-1.854-0.66-2.822-1.116l-0.063-0.046
		c-0.061-0.044-0.113-0.086-0.175-0.131c-1.004-0.745-1.829-1.428-2.516-2.05v-0.008c-0.85-0.774-1.484-1.458-1.944-2.054
		c0.649,0.205,1.31,0.324,1.95,0.387v0.003C213.502,133.749,213.96,133.764,214.396,133.749 M214.396,132.378v-8.551l9.995-4.142
		c-2.107,10.105-6.261,11.654-8.269,12.4C215.689,132.246,215.081,132.349,214.396,132.378 M214.396,161.882v-6.749
		c0.228-0.185,0.459-0.365,0.686-0.563c3.329-2.887,6.108-3.921,8.276-4.118c0.57-0.052,1.099-0.049,1.585,0
		c1.66,0.166,2.802,0.805,3.353,1.201l0.547,0.578l0.278,0.306c0.391,0.651,0.756,1.702,0.357,3.095
		c-0.501,1.754-2.387,4.467-8.407,7.579L214.396,161.882z M218.981,164.191c-1.503,0.618-3.036,1.054-4.586,1.338v-2.252
		L218.981,164.191z M218.731,150.452c-1.344,0.654-2.79,1.595-4.336,2.91c-0.07,0.058-0.141,0.111-0.212,0.173
		c-0.383,0.333-0.771,0.643-1.159,0.936c-1.13,0.858-2.283,1.557-3.431,2.121c-0.459,0.225-0.915,0.429-1.369,0.611
		c-1.16,0.461-2.302,0.794-3.397,0.996c-0.467,0.085-0.923,0.144-1.37,0.187c-1.224,0.114-2.365,0.074-3.387-0.103
		c-0.443-0.076-0.868-0.172-1.262-0.299c-0.038-0.013-0.07-0.025-0.106-0.038c-1.483-0.497-2.466-1.316-2.698-2.264l-0.356-1.528
		c-0.412-1.78-1.103-4.731-1.84-7.791c1.013,0.796,2.604,1.688,4.895,2.094c0.432,0.077,0.885,0.137,1.368,0.175
		c1.012,0.078,2.141,0.056,3.387-0.088c0.44-0.052,0.897-0.122,1.37-0.207c1.055-0.191,2.182-0.47,3.397-0.856
		c0.443-0.141,0.902-0.304,1.369-0.475c0.854-0.314,1.73-0.659,2.66-1.08c0.258-0.115,0.516-0.209,0.771-0.296
		c0.457-0.156,0.914-0.268,1.371-0.345c4.116-0.69,8.207,1.646,10.98,3.796c0.057,0.043,0.118,0.088,0.172,0.132
		C223.794,148.947,221.488,149.103,218.731,150.452 M213.024,156.158v9.583c-1.139,0.145-2.284,0.211-3.431,0.211v-7.849
		C210.74,157.587,211.891,156.942,213.024,156.158 M208.225,158.666v7.256c-1.138-0.051-2.271-0.163-3.397-0.326v-6.021
		C205.926,159.39,207.065,159.091,208.225,158.666 M203.457,159.748v5.626c-1.142-0.205-2.272-0.456-3.387-0.74v-4.96
		C201.105,159.827,202.249,159.854,203.457,159.748 M194.236,144.92c0.015-3.95,1.115-6.695,3.288-8.153
		c0.335-0.223,0.728-0.431,1.178-0.615v10.924C196.454,146.629,195.032,145.657,194.236,144.92 M200.07,147.261v-11.53
		c0.932-0.206,2.05-0.303,3.387-0.232v11.675C202.187,147.335,201.067,147.346,200.07,147.261 M204.827,146.956v-11.331
		c1.02,0.128,2.146,0.345,3.397,0.674v9.743C207.004,146.451,205.872,146.753,204.827,146.956 M209.594,145.551v-8.863
		c1.062,0.325,2.207,0.728,3.431,1.211v6.288c-0.444,0.13-0.889,0.291-1.333,0.49C210.965,145.005,210.269,145.292,209.594,145.551
		 M213.024,132.32c-1.036-0.123-2.131-0.432-3.079-1.034c-0.065-0.293-0.12-0.592-0.12-0.913c0-0.722,0.136-1.497,0.27-2.254
		c0.127-0.725,0.25-1.428,0.25-2.073c0-0.685-0.139-1.303-0.562-1.806c-0.054-0.064-0.127-0.111-0.189-0.169V93.392
		c1.32,0.231,2.93,0.513,3.431,0.601V132.32z M208.225,203.485c-2.896,0.126-6.8,0.128-11.315,0.128
		c-3.304-0.002-6.936,0-10.666,0.055c0.313-0.851,0.528-1.698,0.62-2.549c2.375-0.028,4.675-0.036,6.832-0.039
		c4.123-0.013,7.681-0.021,10.483-0.172l0.648-0.034v-16.906c1.143,0.035,2.276,0.038,3.397-0.003V203.485z M208.946,204.829
		l0.647-0.035v-20.901c1.163-0.078,2.309-0.197,3.431-0.375v25.112c-3.483,0.138-8.896-0.005-15.149-0.172
		c-4.522-0.123-9.415-0.253-14.303-0.298c0.859-1.035,1.537-2.074,2.065-3.116c3.944-0.062,7.788-0.062,11.271-0.062
		C201.771,204.986,205.968,204.988,208.946,204.829 M203.457,199.566c-2.668,0.119-5.962,0.132-9.765,0.143
		c-2.142,0.004-4.426,0.011-6.78,0.04c0-0.013,0.002-0.023,0.002-0.038c-0.11-3.11-1.686-5.453-2.879-6.793
		c5.987-0.662,11.534-1.04,15.388-1.242l0.647-0.034v-8.003c1.134,0.121,2.265,0.218,3.387,0.279V199.566z M198.702,190.343
		c-4.08,0.227-9.81,0.637-15.929,1.35c-0.031-0.023-0.057-0.044-0.067-0.051c0-0.004-0.229-0.204-0.229-0.204
		c-0.036-0.069-1.172-0.953-1.172-0.953c-0.001,0-2.254-1.52-2.254-1.52c0.029,0.019-1.791-1.112-1.791-1.112
		c-0.755-0.463-1.516-0.933-2.248-1.403c6.289-1.108,12.689-1.671,19.163-1.671v-1.369c-7.025,0-13.963,0.656-20.77,1.944
		c-1.395-1.008-2.528-2.031-3.022-3.062c-0.225-0.473-0.321-0.955-0.321-1.438c0-0.764,0.247-1.52,0.604-2.225
		c0.283-0.556,0.63-1.078,0.993-1.548c0.662,0.191,2.731,0.79,2.731,0.79c0.034,0.007,0.07,0.018,0.104,0.027
		c7.027,2.038,15.664,4.531,24.208,5.592V190.343z M169.781,177.409c-0.308,0.522-0.548,1.038-0.724,1.546
		c-0.488,1.409-0.475,2.749,0.09,3.928c0.479,1.004,1.362,1.927,2.464,2.821c0.457,0.375,0.942,0.741,1.468,1.107
		c1.067,0.737,2.252,1.466,3.464,2.21l1.805,1.119c0.03,0.018,2.134,1.439,2.134,1.439c0.004,0,0.104,0.081,0.235,0.183l1.288,1.076
		c0.079,0.068,0.187,0.161,0.306,0.276c0.296,0.278,0.701,0.709,1.122,1.242l-0.515,0.116c-3.713,0.714-17.187,1.125-22.557-4.413
		c-3.83-3.951-4.046-8.729-2.97-11.883c0.707-2.062,1.81-3.152,2.593-3.346c0,0,2.799-0.346,10.263,1.845
		C170.077,176.921,169.927,177.167,169.781,177.409 M173.688,196.114c-1.921,2.209-6.537,3.781-12.216,4.121
		c-2.787,0.168-5.218,0.079-7.104-0.078c3.298-2.038,8.346-3.601,13.988-4.807C170.121,195.737,171.937,195.979,173.688,196.114
		 M95.822,200.908c2.803,0.151,6.362,0.159,10.484,0.172c2.661,0.007,5.542,0.016,8.508,0.064c0.47,0.897,0.952,1.751,1.444,2.564
		c-4.607-0.096-9.127-0.098-13.167-0.096c-4.516,0-8.419-0.002-11.313-0.128v-28.93c1.169,0.365,2.3,0.815,3.396,1.351v24.968
		L95.822,200.908z M100.579,191.676c2.632,0.14,6.06,0.358,9.873,0.696c1.029,1.879,2.041,3.91,3.044,6.104
		c0.202,0.441,0.409,0.866,0.616,1.289c-2.716-0.043-5.353-0.052-7.802-0.056c-3.804-0.011-7.097-0.023-9.766-0.143v-22.942
		c1.165,0.664,2.292,1.435,3.386,2.31v12.708L100.579,191.676z M101.3,190.343v-10.245c2.979,2.71,5.72,6.287,8.343,10.833
		C106.482,190.661,103.624,190.474,101.3,190.343 M86.977,175.435v-1.891c1.18,0.144,2.322,0.352,3.431,0.628v30.622l0.648,0.035
		c2.977,0.159,7.175,0.157,12.037,0.153c4.294,0,9.135,0,14.038,0.116c0.716,1.092,1.446,2.106,2.189,3.047
		c-5.832,0.011-11.777,0.166-17.193,0.313c-6.253,0.167-11.665,0.31-15.15,0.172v-28.152V175.435z M155.426,49.433
		c0,0,9.928,1.444,12.131,1.763c-1.594,1.555-8.778,8.561-8.778,8.561s1.696,9.891,2.072,12.086
		c-1.639-0.862-8.047-4.233-10.163-5.348L150,66.133c0,0-0.255,0.134-0.682,0.359c-2.113,1.111-8.527,4.487-10.166,5.351
		c0.376-2.196,2.071-12.086,2.071-12.086s-7.185-7.005-8.779-8.561c2.202-0.319,11.775-1.71,11.775-1.71l0.357-0.052
		c0,0,0.972-1.97,2.107-4.272l0.688-1.394L150,38.438c0.432,0.877,1.532,3.105,2.629,5.328c0.231,0.468,0.465,0.939,0.687,1.394
		C154.453,47.463,155.426,49.433,155.426,49.433 M242.953,248.1c-25.21,23.909-58.188,37.08-92.953,37.08
		c-34.765,0-67.742-13.171-92.949-37.08c0.873-0.944,18.768-20.304,19.634-21.242c19.845,18.954,45.847,29.395,73.315,29.395
		c27.468,0,53.468-10.441,73.317-29.395C224.181,227.794,242.081,247.155,242.953,248.1 M239.663,237.226
		c-0.902,0.839-1.678,1.775-2.327,2.781l-13.952-15.097l-0.507,0.486c-0.465,0.452-0.938,0.895-1.413,1.338
		c-2.122,1.085-4.143,1.223-5.215,0.229c-0.526-0.49-0.811-1.205-0.843-2.118c-0.07-2.038,1.132-4.647,3.144-6.807
		c2.016-2.167,4.537-3.558,6.575-3.63c0.908-0.032,1.633,0.199,2.154,0.688c1.191,1.108,1.224,3.349,0.13,5.651l-0.314,0.344
		l13.906,15.042C240.506,236.495,240.068,236.848,239.663,237.226 M248.639,242.376c-0.949-1.023-18.915-20.459-19.694-21.302
		c17.591-19.54,27.28-44.75,27.28-71.077c0-57.192-45.4-103.967-102.039-106.174c-1.84-3.727-4.185-8.479-4.185-8.479l-0.615,1.244
		c0,0-1.945,3.942-3.57,7.235C89.178,46.03,43.778,92.804,43.778,149.997c0,26.328,9.689,51.54,27.277,71.077
		c-0.78,0.843-18.74,20.278-19.688,21.302c-23.539-25.142-36.506-57.91-36.506-92.379C14.862,75.459,75.485,14.818,150,14.818
		c74.518,0,135.138,60.641,135.138,135.179C285.139,184.471,272.174,217.24,248.639,242.376"/>
</g>
</svg>
